<?xml version="1.0" encoding="iso-8859-1"?>
<!-- Generator: Adobe Illustrator 19.0.0, SVG Export Plug-In . SVG Version: 6.00 Build 0)  -->
<svg version="1.1" id="Layer_1" xmlns="http://www.w3.org/2000/svg" xmlns:xlink="http://www.w3.org/1999/xlink" x="0px" y="0px"
	 viewBox="0 0 512 512" style="enable-background:new 0 0 512 512;" xml:space="preserve">
<path style="fill:#FFB655;" d="M437.025,74.979C388.675,26.629,324.385,0,256.002,0C256,0,256,0,256,0c-0.002,0-0.002,0-0.002,0
	C114.842,0.006,0.002,114.842,0,255.989c0,0.002,0,0.002,0,0.002v0.002C0.011,397.163,114.849,512.008,255.998,512
	c0.002,0,0.002,0,0.002,0h0.002C397.158,512,512,397.157,512,255.995c0-0.002,0-0.003,0-0.005l0,0c0-0.002,0-0.002,0-0.002
	C512.002,187.611,485.374,123.328,437.025,74.979z"/>
<g>
	<path style="fill:#EE8700;" d="M23.273,232.718h1.156h23.417h184.882v-40.021c-53.366-4.928-104.189-26.636-144.638-61.769
		c-5.9-5.123-11.568-10.546-17.002-16.229c-0.586-0.613-1.181-1.212-1.761-1.831c-8.789-9.379-8.311-24.107,1.069-32.895
		c9.259-8.676,23.715-8.302,32.543,0.729c0.115,0.118,0.24,0.22,0.354,0.341c5.286,5.643,10.828,10.938,16.587,15.901
		c0.006,0.005,0.011,0.008,0.016,0.012c31.98,27.539,70.903,44.445,112.832,49.015V96.956v-49.11V24.429v-1.156
		C232.727,10.42,243.147,0,256,0c-0.002,0-0.002,0-0.002,0C114.842,0.006,0.002,114.842,0,255.989
		C0,243.138,10.42,232.718,23.273,232.718z"/>
	<path style="fill:#EE8700;" d="M255.998,512c-12.851,0-23.271-10.42-23.271-23.273v-1.154v-23.417v-49.115v-49.019
		c-41.931,4.569-80.854,21.478-112.834,49.02c-0.005,0.005-0.011,0.008-0.014,0.012c-5.761,4.962-11.301,10.259-16.587,15.9
		c-0.113,0.121-0.239,0.222-0.355,0.34c-4.546,4.653-10.575,7.021-16.634,7.021c-5.703,0-11.418-2.082-15.908-6.29
		c-9.379-8.788-9.858-23.516-1.071-32.895c0.58-0.619,1.179-1.221,1.764-1.834c5.433-5.685,11.101-11.106,17-16.229
		c40.451-35.133,91.273-56.841,144.638-61.77V279.26H47.847H24.429h-1.156C10.42,279.26,0,268.84,0,255.988v0.002
		C0.011,397.163,114.849,512.008,255.998,512z"/>
</g>
<path style="fill:#A78966;" d="M23.273,279.263h1.156h23.419h184.88V319.3c-53.366,4.928-104.186,26.638-144.638,61.77
	c-5.899,5.125-11.567,10.546-17,16.229c-0.585,0.613-1.184,1.215-1.764,1.834c-8.788,9.379-8.307,24.107,1.071,32.895
	c4.49,4.206,10.204,6.29,15.908,6.29c6.057,0,12.088-2.368,16.634-7.021c0.115-0.118,0.24-0.219,0.355-0.34
	c5.286-5.641,10.828-10.938,16.587-15.9c0.003-0.005,0.009-0.008,0.014-0.012c31.978-27.542,70.901-44.451,112.834-49.02v49.019
	v49.115v23.417v1.151c0,12.853,10.42,23.273,23.271,23.273c0.002,0,0.002,0,0.002,0c0.565,0,1.117-0.045,1.671-0.084
	c0.234-0.017,0.476-0.012,0.709-0.036c0.334-0.034,0.658-0.102,0.987-0.15c11.253-1.635,19.906-11.297,19.906-23.003v-1.156v-23.417
	v-49.113v-49.019c41.934,4.569,80.859,21.476,112.837,49.017c0.006,0.003,0.011,0.008,0.016,0.012
	c5.761,4.962,11.3,10.257,16.586,15.898c0.113,0.123,0.24,0.227,0.357,0.346c8.825,9.03,23.284,9.398,32.538,0.725
	c9.38-8.788,9.86-23.516,1.071-32.895c-0.579-0.617-1.174-1.218-1.759-1.829c-5.436-5.685-11.103-11.107-17.003-16.232
	c-40.451-35.131-91.276-56.838-144.643-61.766v-40.037h184.883h23.417h1.156c12.853,0,23.271-10.418,23.273-23.273l0,0
	c0-0.002,0-0.002,0-0.002c-0.002-12.853-10.42-23.271-23.273-23.271h-1.154h-23.405H279.273v-40.021
	c53.408-4.931,104.266-26.667,144.732-61.845c5.868-5.101,11.509-10.498,16.915-16.154c0.585-0.611,1.181-1.21,1.759-1.828
	c8.788-9.379,8.308-24.107-1.071-32.895c-9.258-8.675-23.712-8.304-32.54,0.725c-0.115,0.119-0.242,0.223-0.355,0.344
	c-5.26,5.613-10.771,10.885-16.5,15.825c-0.036,0.029-0.068,0.057-0.102,0.087c-31.978,27.539-70.904,44.448-112.837,49.017V96.956
	V47.832V24.429v-1.156C279.273,10.42,268.853,0,256.002,0C256,0,256,0,256,0c-12.853,0-23.273,10.42-23.273,23.273v1.156v23.417
	v49.109v49.017c-41.93-4.569-80.853-21.476-112.832-49.017c-0.005-0.003-0.009-0.008-0.016-0.012
	c-5.761-4.962-11.301-10.259-16.587-15.901c-0.112-0.121-0.237-0.223-0.354-0.341c-8.827-9.031-23.284-9.405-32.543-0.729
	c-9.38,8.788-9.858,23.516-1.069,32.895c0.58,0.618,1.174,1.218,1.761,1.831c5.433,5.683,11.101,11.106,17.002,16.229
	c40.448,35.133,91.273,56.841,144.638,61.769v40.021H47.846H24.429h-1.156C10.42,232.715,0,243.135,0,255.986
	c0,0.002,0,0.002,0,0.002C0,268.843,10.42,279.263,23.273,279.263z"/>
<g>
	<path style="fill:#DD512A;" d="M257.671,511.916c0.234-0.017,0.476-0.012,0.709-0.036
		C258.147,511.904,257.907,511.899,257.671,511.916z"/>
	<path style="fill:#DD512A;" d="M279.273,488.727c0,11.706-8.653,21.367-19.906,23.003
		C270.62,510.095,279.273,500.433,279.273,488.727z"/>
</g>
<path style="fill:#806749;" d="M232.727,23.273v1.156v23.417v49.109v49.017c-41.93-4.569-80.853-21.476-112.832-49.017
	c-0.005-0.003-0.009-0.008-0.016-0.012c-5.761-4.962-11.301-10.259-16.587-15.9c-0.112-0.121-0.237-0.223-0.352-0.341
	c-8.828-9.031-23.284-9.405-32.543-0.729c-9.38,8.788-9.858,23.516-1.069,32.895c0.58,0.618,1.174,1.218,1.761,1.831
	c5.433,5.683,11.101,11.106,17.001,16.229c40.448,35.133,91.273,56.841,144.638,61.769v40.021H47.846H24.429h-1.156
	C10.42,232.716,0,243.136,0,255.988c0,0.002,0,0.002,0,0.002c0,12.853,10.42,23.273,23.273,23.273h1.156h23.419h184.88v40.037
	c-53.366,4.928-104.186,26.638-144.638,61.77c-5.899,5.125-11.567,10.546-17,16.23c-0.585,0.613-1.184,1.215-1.764,1.834
	c-8.788,9.379-8.307,24.107,1.071,32.895c4.49,4.206,10.204,6.29,15.908,6.29c6.057,0,12.088-2.368,16.634-7.021
	c0.115-0.118,0.24-0.219,0.355-0.34c5.286-5.641,10.828-10.938,16.587-15.9c0.003-0.005,0.009-0.008,0.014-0.012
	c31.978-27.544,70.901-44.451,112.834-49.02v49.019v49.115v23.417v1.151c0,12.853,10.42,23.273,23.271,23.273
	c0.002,0,0.002,0,0.002,0V0C243.147,0,232.727,10.42,232.727,23.273z"/>
<g>
</g>
<g>
</g>
<g>
</g>
<g>
</g>
<g>
</g>
<g>
</g>
<g>
</g>
<g>
</g>
<g>
</g>
<g>
</g>
<g>
</g>
<g>
</g>
<g>
</g>
<g>
</g>
<g>
</g>
</svg>
