<?xml version="1.0" encoding="iso-8859-1"?>
<!-- Generator: Adobe Illustrator 19.0.0, SVG Export Plug-In . SVG Version: 6.00 Build 0)  -->
<svg version="1.1" id="Layer_1" xmlns="http://www.w3.org/2000/svg" xmlns:xlink="http://www.w3.org/1999/xlink" x="0px" y="0px"
	 viewBox="0 0 511.996 511.996" style="enable-background:new 0 0 511.996 511.996;" xml:space="preserve">
<path style="fill:#FFC033;" d="M434.198,371.976c-0.892-4.341-3.452-8.125-7.235-10.574L263.792,255.887l162.059-107.519
	c3.563-2.449,6.122-6.233,7.012-10.574c0.89-4.452,0-8.904-2.561-12.577C386.672,60.66,311.542,22.26,233.741,22.26h-1.336
	c-5.676,0-11.242,0.334-16.696,0.779C94.723,32.278-0.665,134.12,0.003,257.333s97.279,223.943,218.378,231.845
	c5.01,0.445,10.129,0.557,15.36,0.557h1.336c78.246-0.445,153.598-39.847,196.786-105.182
	C434.198,380.881,435.089,376.43,434.198,371.976z"/>
<path style="fill:#F9A926;" d="M431.862,384.554c-43.187,65.335-118.538,104.737-196.786,105.182h-1.336V22.26
	c77.801,0,152.931,38.4,196.561,102.956c2.561,3.673,3.452,8.125,2.561,12.577c-0.89,4.341-3.449,8.125-7.012,10.574
	L263.791,255.887l163.171,105.516c3.784,2.449,6.343,6.233,7.235,10.574C435.089,376.43,434.198,380.881,431.862,384.554z"/>
<g>
	<circle style="fill:#45C7E6;" cx="361.736" cy="256.108" r="16.696"/>
	<circle style="fill:#45C7E6;" cx="428.518" cy="256.108" r="16.696"/>
	<circle style="fill:#45C7E6;" cx="495.3" cy="256.108" r="16.696"/>
</g>
<circle style="fill:#665247;" cx="283.823" cy="122.544" r="16.696"/>
<g>
</g>
<g>
</g>
<g>
</g>
<g>
</g>
<g>
</g>
<g>
</g>
<g>
</g>
<g>
</g>
<g>
</g>
<g>
</g>
<g>
</g>
<g>
</g>
<g>
</g>
<g>
</g>
<g>
</g>
</svg>
